<svg id="Capa_1" enable-background="new 0 0 512 512" height="512" viewBox="0 0 512 512" width="512" xmlns="http://www.w3.org/2000/svg"><path d="m48.301 233.785 207.699-165.948 207.697 165.967c12.766 9.824 31.705 7.949 42.07-5.493 10.078-13.065 7.714-31.906-5.493-42.07l-225.978-180.03c-5.274-4.058-11.617-6.211-18.296-6.211-6.694 0-13.008 2.139-18.296 6.211l-225.965 180.011c-13.29 10.204-15.535 29.084-5.508 42.056 10.19 13.297 29.095 15.49 42.07 5.507z"/><path d="m452 45c0-8.284-6.716-15-15-15h-30c-8.284 0-15 6.716-15 15v16.181l60 48.01z"/><path d="m286 240h-60c-8.291 0-15 6.709-15 15v137h-30c-5.815 0-11.118 3.369-13.579 8.643-2.476 5.259-1.67 11.484 2.051 15.967l75 90c2.856 3.412 7.075 5.39 11.528 5.39s8.672-1.978 11.528-5.391l75-90c3.721-4.482 4.526-10.708 2.051-15.967-2.461-5.273-7.764-8.642-13.579-8.642h-30v-137c0-8.291-6.709-15-15-15z"/><path d="m352.088 452h84.912c8.284 0 15-6.716 15-15v-175.895c-2.166-1.263-4.612-1.992-6.606-3.527l-189.394-151.274-188.925 150.879c-2.183 1.681-4.742 2.465-7.075 3.823v175.994c0 8.284 6.716 15 15 15h84.917l-13.488-16.187c-11.147-13.433-13.55-32.227-6.152-47.944 7.31-15.674 23.32-25.869 40.723-25.869v-107c0-24.814 20.186-45 45-45h60c24.814 0 45 20.186 45 45v107c17.402 0 33.413 10.195 40.767 25.957 7.354 15.63 4.951 34.424-6.152 47.813z"/></svg>